<svg width="30" height="28" viewBox="0 0 30 28" fill="none" xmlns="http://www.w3.org/2000/svg">
<path opacity="0.4" d="M26.0543 9.10852C27.5448 9.10852 28.7531 10.3168 28.7531 11.8073L28.7531 25.3013C28.7531 26.7918 27.5448 28.0001 26.0543 28.0001C24.5638 28.0001 23.3555 26.7918 23.3555 25.3013L23.3555 11.8073C23.3555 10.3168 24.5638 9.10852 26.0543 9.10852Z" fill="#1D63FF"/>
<path opacity="0.4" d="M4.46442 19.9036C5.95492 19.9036 7.16321 21.1119 7.16321 22.6024V25.3012C7.16321 26.7917 5.95492 27.9999 4.46442 27.9999C2.97392 27.9999 1.76562 26.7917 1.76562 25.3012L1.76563 22.6024C1.76563 21.1119 2.97392 19.9036 4.46442 19.9036Z" fill="#1D63FF"/>
<path opacity="0.4" d="M15.2593 14.506C16.7498 14.506 17.9581 15.7143 17.9581 17.2048V25.3012C17.9581 26.7917 16.7498 28 15.2593 28C13.7688 28 12.5605 26.7917 12.5605 25.3012L12.5605 17.2048C12.5605 15.7143 13.7688 14.506 15.2593 14.506Z" fill="#1D63FF"/>
<path fill-rule="evenodd" clip-rule="evenodd" d="M23.6938 1.01205C23.6938 0.453109 24.1469 0 24.7058 0H27.4046C28.7088 0 29.7661 1.05726 29.7661 2.36145V5.06024C29.7661 5.61918 29.313 6.07229 28.754 6.07229C28.1951 6.07229 27.742 5.61918 27.742 5.06024V3.38849C22.5023 7.5858 18.4394 10.3125 14.5054 12.1371C10.482 14.0032 6.64209 14.9032 1.89434 15.5099C1.33991 15.5808 0.833024 15.1887 0.762179 14.6343C0.691334 14.0799 1.08336 13.573 1.63779 13.5021C6.25772 12.9118 9.87894 12.0517 13.6538 10.3009C17.3095 8.6054 21.1543 6.05361 26.2071 2.0241H24.7058C24.1469 2.0241 23.6938 1.57099 23.6938 1.01205Z" fill="#1D63FF"/>
</svg>
