<svg width="28" height="28" viewBox="0 0 28 28" fill="none" xmlns="http://www.w3.org/2000/svg">
<path fill-rule="evenodd" clip-rule="evenodd" d="M19.5135 3.1148C16.629 4.35102 13.2036 6.72284 9.96322 9.96325C6.72282 13.2037 4.35101 16.629 3.1148 19.5135C2.49542 20.9587 2.18377 22.2157 2.15588 23.2153C2.12807 24.2118 2.38025 24.8485 2.76589 25.2341C3.15153 25.6198 3.78821 25.8719 4.7847 25.8441C5.78432 25.8162 7.04123 25.5046 8.48643 24.8852C11.3709 23.649 14.7963 21.2772 18.0367 18.0367C21.2771 14.7963 23.6489 11.371 24.8851 8.48647C25.5045 7.04126 25.8161 5.78434 25.844 4.78472C25.8718 3.78822 25.6196 3.15153 25.234 2.76589C24.8484 2.38025 24.2117 2.12807 23.2152 2.15588C22.2156 2.18377 20.9587 2.49542 19.5135 3.1148ZM23.1551 0.00286155C24.5207 -0.0352458 25.8177 0.30353 26.757 1.24289C27.6964 2.18224 28.0351 3.47916 27.997 4.84479C27.959 6.2073 27.5479 7.74103 26.8648 9.33491C25.4961 12.5286 22.9442 16.1752 19.5597 19.5597C16.1751 22.9443 12.5285 25.4962 9.33488 26.8649C7.74101 27.548 6.20728 27.9591 4.84478 27.9971C3.47915 28.0352 2.18223 27.6965 1.24288 26.7571C0.303528 25.8178 -0.0352455 24.5208 0.00286152 23.1552C0.0408812 21.7927 0.452005 20.259 1.13509 18.6651C2.5038 15.4714 5.05566 11.8248 8.44022 8.44026C11.8248 5.05568 15.4713 2.50382 18.665 1.1351C20.2589 0.452007 21.7926 0.0408815 23.1551 0.00286155Z" fill="#1D63FF"/>
<path opacity="0.4" fill-rule="evenodd" clip-rule="evenodd" d="M4.7847 2.15588C3.78821 2.12807 3.15153 2.38025 2.76589 2.76589C2.38025 3.15153 2.12807 3.78822 2.15588 4.78472C2.18377 5.78434 2.49542 7.04126 3.1148 8.48647C4.35101 11.371 6.72282 14.7963 9.96322 18.0367C13.2036 21.2772 16.629 23.649 19.5135 24.8852C20.9587 25.5046 22.2156 25.8162 23.2152 25.8441C24.2117 25.8719 24.8484 25.6198 25.234 25.2341C25.6196 24.8485 25.8718 24.2118 25.844 23.2153C25.8161 22.2157 25.5045 20.9587 24.8851 19.5135C23.6489 16.629 21.2771 13.2037 18.0367 9.96325C14.7963 6.72284 11.3709 4.35102 8.48644 3.1148C7.04123 2.49542 5.78432 2.18377 4.7847 2.15588ZM9.33488 1.1351C12.5285 2.50382 16.1751 5.05568 19.5597 8.44026C22.9442 11.8248 25.4961 15.4714 26.8648 18.6651C27.5479 20.259 27.959 21.7927 27.997 23.1552C28.0351 24.5208 27.6964 25.8178 26.757 26.7571C25.8177 27.6965 24.5207 28.0352 23.1551 27.9971C21.7926 27.9591 20.2589 27.548 18.665 26.8649C15.4713 25.4962 11.8248 22.9443 8.44022 19.5597C5.05566 16.1752 2.5038 12.5286 1.13509 9.33491C0.452005 7.74103 0.0408812 6.2073 0.00286152 4.84479C-0.0352455 3.47916 0.303528 2.18224 1.24288 1.24289C2.18223 0.30353 3.47915 -0.0352458 4.84478 0.00286155C6.20728 0.0408816 7.74101 0.452007 9.33488 1.1351Z" fill="#1D63FF"/>
<circle opacity="0.4" cx="14.0007" cy="14" r="2.8718" fill="#1D63FF"/>
</svg>
