<svg width="39" height="28" viewBox="0 0 39 28" fill="none" xmlns="http://www.w3.org/2000/svg">
<path opacity="0.4" fill-rule="evenodd" clip-rule="evenodd" d="M21.8385 5.76541C22.4316 6.21029 22.5519 7.05178 22.107 7.64495L18.3479 12.6571H22.823C23.3315 12.6571 23.7964 12.9444 24.0238 13.3992C24.2512 13.854 24.2021 14.3983 23.897 14.8051L18.5269 21.9652C18.082 22.5584 17.2405 22.6786 16.6474 22.2337C16.0542 21.7889 15.934 20.9474 16.3789 20.3542L20.1379 15.3421H15.6628C15.1543 15.3421 14.6895 15.0548 14.4621 14.6C14.2346 14.1452 14.2837 13.6009 14.5888 13.1941L19.9589 6.03392C20.4038 5.44075 21.2453 5.32054 21.8385 5.76541Z" fill="#1D63FF"/>
<path fill-rule="evenodd" clip-rule="evenodd" d="M12.5977 5.45657C13.122 5.98086 13.122 6.8309 12.5977 7.35519C10.8956 9.05731 9.84521 11.4049 9.84521 14.0004C9.84521 16.5958 10.8956 18.9434 12.5977 20.6455C13.122 21.1698 13.122 22.0199 12.5977 22.5442C12.0734 23.0684 11.2234 23.0684 10.6991 22.5442C8.51403 20.3591 7.16016 17.3366 7.16016 14.0004C7.16016 10.6642 8.51403 7.64165 10.6991 5.45657C11.2234 4.93228 12.0734 4.93228 12.5977 5.45657ZM25.8881 5.45657C26.4124 4.93228 27.2624 4.93228 27.7867 5.45657C29.9718 7.64165 31.3257 10.6642 31.3257 14.0004C31.3257 17.3366 29.9718 20.3591 27.7867 22.5442C27.2624 23.0684 26.4124 23.0684 25.8881 22.5442C25.3638 22.0199 25.3638 21.1698 25.8881 20.6455C27.5902 18.9434 28.6406 16.5958 28.6406 14.0004C28.6406 11.4049 27.5902 9.05731 25.8881 7.35519C25.3638 6.8309 25.3638 5.98086 25.8881 5.45657Z" fill="#1D63FF"/>
<path opacity="0.4" fill-rule="evenodd" clip-rule="evenodd" d="M7.53474 0.393217C8.05902 0.917507 8.05902 1.76755 7.53474 2.29184C4.53688 5.28969 2.68506 9.42731 2.68506 14C2.68506 18.5727 4.53689 22.7103 7.53474 25.7082C8.05902 26.2325 8.05902 27.0825 7.53474 27.6068C7.01045 28.1311 6.1604 28.1311 5.63611 27.6068C2.1553 24.126 0 19.3134 0 14C0 8.68659 2.1553 3.87403 5.63611 0.393217C6.1604 -0.131072 7.01045 -0.131072 7.53474 0.393217ZM30.9511 0.393217C31.4753 -0.131072 32.3254 -0.131072 32.8497 0.393217C36.3305 3.87403 38.4858 8.68659 38.4858 14C38.4858 19.3134 36.3305 24.126 32.8497 27.6068C32.3254 28.1311 31.4753 28.1311 30.9511 27.6068C30.4268 27.0825 30.4268 26.2325 30.9511 25.7082C33.9489 22.7103 35.8007 18.5727 35.8007 14C35.8007 9.42731 33.9489 5.28969 30.9511 2.29184C30.4268 1.76755 30.4268 0.917507 30.9511 0.393217Z" fill="#1D63FF"/>
</svg>
