<svg width="30" height="30" viewBox="0 0 30 30" fill="none" xmlns="http://www.w3.org/2000/svg">
<path d="M18.7255 27.9234L15.0799 16.9866C14.6872 15.8084 15.8081 14.6874 16.9864 15.0802L27.9232 18.7258C29.2972 19.1838 29.2972 21.1274 27.9232 21.5854L23.8846 22.9316C23.4345 23.0816 23.0814 23.4348 22.9314 23.8848L21.5852 27.9234C21.1272 29.2975 19.1836 29.2975 18.7255 27.9234Z" fill="#1D63FF"/>
<path opacity="0.4" fill-rule="evenodd" clip-rule="evenodd" d="M14.9999 9.06986C11.7247 9.06986 9.06962 11.725 9.06962 15.0002C9.06962 17.4888 10.6029 19.6219 12.7802 20.5014C13.3161 20.7179 13.5751 21.3278 13.3586 21.8637C13.1421 22.3997 12.5322 22.6586 11.9963 22.4421C9.05497 21.254 6.97656 18.3711 6.97656 15.0002C6.97656 10.569 10.5688 6.97681 14.9999 6.97681C18.3708 6.97681 21.2537 9.05522 22.4419 11.9965C22.6584 12.5324 22.3994 13.1423 21.8635 13.3588C21.3276 13.5753 20.7177 13.3164 20.5012 12.7805C19.6216 10.6031 17.4886 9.06986 14.9999 9.06986Z" fill="#1D63FF"/>
<path opacity="0.4" fill-rule="evenodd" clip-rule="evenodd" d="M15.0002 2.09306C7.8718 2.09306 2.09306 7.8718 2.09306 15.0002C2.09306 22.0923 7.813 27.8484 14.8911 27.907C15.469 27.9118 15.9337 28.3842 15.9289 28.9621C15.9241 29.5401 15.4517 30.0047 14.8738 30C6.64748 29.9319 0 23.2424 0 15.0002C0 6.71584 6.71584 0 15.0002 0C23.2424 0 29.9319 6.64748 30 14.8738C30.0047 15.4517 29.5401 15.9241 28.9621 15.9289C28.3842 15.9337 27.9118 15.469 27.907 14.8911C27.8484 7.813 22.0923 2.09306 15.0002 2.09306Z" fill="#1D63FF"/>
</svg>
